# xmcd
#
# Track frame offsets:
#	150
#	17787
#	34292
#	57575
#	78692
#	93677
#	107807
#	121499
#	140694
#	158279
#	175054
#	192732
#	209114
#	228254
#	248572
#
# Disc length: 3541
#
# Revision: 1
# Processed by: cddbd v1.5.2PL0 Copyright (c) Steve Scherf et al.
# Submitted via: kJams Pro (development) 1.0patch44.18
#
DISCID=d90dd30f
DTITLE=Various Artist - SC8602 Country Hits Vol. 124
DYEAR=2000
DGENRE=Country
TTITLE0=Wade Hayes - Up North (Down South, Back East, Out West)
TTITLE1=Rebecca Lynn Howard - Out Here In The Water
TTITLE2=Alan Jackson - The Blues Man
TTITLE3=Reba McEntire - I'll Be
TTITLE4=Trini Triggs - The Wreckin' Crew
TTITLE5=Joe Diffie - It's Always Somethin'
TTITLE6=Blackhawk - I Need You All The Time
TTITLE7=Keith Urban - Your Everything
TTITLE8=Marty Raybon - Cracker Jack Diamond
TTITLE9=Eric Heatherly - Flowers On The Wall
TTITLE10=Lila McCann - Kiss Me Now
TTITLE11=Chad Brock - Yes!
TTITLE12=Coley McCabe - Grow Young With You
TTITLE13=Faith Hill - That's How Love Moves
TTITLE14=Craig Morgan - Something To Write Home About
EXTD=
EXTT0=
EXTT1=
EXTT2=
EXTT3=
EXTT4=
EXTT5=
EXTT6=
EXTT7=
EXTT8=
EXTT9=
EXTT10=
EXTT11=
EXTT12=
EXTT13=
EXTT14=
PLAYORDER=
